<?xml version="1.0" ?><svg style="enable-background:new 0 0 48 48;" version="1.1" viewBox="0 0 48 48" xml:space="preserve" xmlns="http://www.w3.org/2000/svg" xmlns:xlink="http://www.w3.org/1999/xlink"><style type="text/css">
	.st0{display:none;}
	.st1{fill:none;stroke:#303030;stroke-width:0.7;stroke-linecap:round;stroke-linejoin:round;stroke-miterlimit:10;}
	.st2{fill:#303030;}
</style><g class="st0" id="Padding__x26__Artboard"/><g id="Icons"><g><path class="st1" d="M17.95222,14.10514h0.9013c0.21198,0,0.42036-0.06112,0.59631-0.17935    c0.28018-0.18827,0.55758-0.3808,0.84545-0.55725c0.16461-0.1009,0.35297-0.24185,0.53977-0.29492    c0.19797-0.05624,0.42625-0.00931,0.62833-0.00931c0.27421,0,0.54843,0,0.82264,0c0.70548,0,1.41095,0,2.11643,0    c1.09488,0,2.18977,0,3.28465,0c0.02553,0,0.05106,0,0.07659,0l-0.8226,0.00126h0.82l4.83793-0.0013    c0.9355-0.00025,1.71305,0.76512,1.69462,1.70044c-0.01669,0.84692-0.15599,1.60765-1.00351,1.60765h0.1076    c0.91396,0,1.61795,0.74711,1.60863,1.66102c-0.00988,0.96905,0.13757,1.76219-0.82805,1.76219h0.3228    c0.92,0,1.40993,0.80352,1.40993,1.73351c0,0.92,0.12016,1.65903-0.79984,1.65903h0.32154c0.92,0,1.04668,0.81019,1.04668,1.73019    c0,0.93-0.49831,1.60727-1.41831,1.60727l-8.70333-0.01419c0.20236,0.27825,1.23094,4.09943,1.15505,4.83301    c-0.0544,0.52583-0.20867,1.0503-0.3366,1.56151c-0.17118,0.68406-0.35542,1.36467-0.53957,2.04532    c-0.11769,0.43504-0.8064,0.7405-1.18842,0.87866c-0.58066,0.21-1.19885,0.11427-1.68509-0.26741    c-0.2588-0.20315-0.66063-0.53764-0.66016-0.88887c0.00162-1.21729-0.00109-2.43457,0.00345-3.65185    c0.00004-0.01062,0.00008-0.02123,0.00012-0.03185c0.00023-0.06161,0.00036-0.12407-0.01541-0.18363    c-0.0169-0.06386-0.05128-0.12147-0.08524-0.17812c-0.68155-1.13686-1.36008-2.27553-2.03821-3.41444    c-0.29735-0.4994-0.59458-0.99887-0.89091-1.49888c-0.26875-0.45347-0.51342-0.94802-0.9745-1.23768    c-0.40725-0.25585-0.81631-0.5144-1.22585-0.76968"/><path class="st1" d="M16.5418,12.06114h-3.68656c-0.7371,0-1.33464,0.59754-1.33464,1.33464v10.27436    c0,0.7371,0.59754,1.33464,1.33464,1.33464h3.68656c0.7371,0,1.33464-0.59754,1.33464-1.33464V13.39577    C17.87644,12.65868,17.2789,12.06114,16.5418,12.06114z"/><line class="st1" x1="13.55524" x2="13.55524" y1="21.299" y2="16.25478"/><line class="st1" x1="13.55524" x2="13.55524" y1="22.44661" y2="23.2498"/></g></g></svg>