<?xml version="1.0" encoding="utf-8"?>
<!-- Generated by IcoMoon.io -->
<!DOCTYPE svg PUBLIC "-//W3C//DTD SVG 1.1//EN" "http://www.w3.org/Graphics/SVG/1.1/DTD/svg11.dtd">
<svg version="1.1" xmlns="http://www.w3.org/2000/svg" xmlns:xlink="http://www.w3.org/1999/xlink" width="21" height="24" viewBox="0 0 21 24">
<path fill="#444" d="M20.929 6.222l-9.859-6.141c-0.242-0.162-0.566-0.162-0.808 0l-9.859 6.141c-0.242 0.162-0.404 0.404-0.404 0.727v11.879c0 0.323 0.162 0.566 0.404 0.808l1.455 1.212c0.242 0.162 0.485 0.242 0.808 0.323h13.253c0.323 0 0.646 0.081 0.889 0.242l4.121 2.667c0.081 0.081 0.242 0.081 0.323 0s0.081-0.162 0.081-0.242v-16.889c-0.081-0.323-0.162-0.566-0.404-0.727zM16.242 15.596c0 0.242-0.242 0.485-0.485 0.485h-10.343c-0.242 0-0.485-0.242-0.485-0.485v-5.818c0-0.323 0.162-0.566 0.404-0.727l4.929-2.909c0.242-0.162 0.566-0.162 0.808 0l4.768 2.828c0.242 0.162 0.404 0.404 0.404 0.727v5.899z"></path>
</svg>
